<?xml version="1.0" encoding="UTF-8" standalone="no"?>
<!DOCTYPE svg PUBLIC "-//W3C//DTD SVG 1.0//EN" "http://www.w3.org/TR/2001/REC-SVG-20010904/DTD/svg10.dtd">
<svg xmlns="http://www.w3.org/2000/svg" version="1.0" viewBox="0.00 0.00 1965.00 1361.00">
<g stroke-width="2.00" fill="none" stroke-linecap="butt">
<defs>
    <style>
      .logo-stroke {
        fill: #000000;
      }
      .logo-font-stroke {
        fill: #000000;
      }
      .magni-glass-dark-stroke {
        fill: #2d5233;
      }
      .magni-glass-light-stroke {
        fill: #5ca86d;
      }
      .blue-mol-stroke {
        fill: #4a9cd9;
      }
      @media (prefers-color-scheme: dark) {
        .logo-stroke {
          fill: #FFFCFB;
        }
        .logo-font-stroke {
          fill: #FFFCFB;
        }
        .magni-glass-dark-stroke {
          fill: #6bbc7c;
        }
        .magni-glass-light-stroke {
          fill: #8fd19f;
        }
        .blue-mol-stroke {
          fill: #85c5f0;
        }
      }
    </style>
</defs>
<path class="logo-stroke" vector-effect="non-scaling-stroke" d="
  M 1481.4899 168.4200
  A 39.59 38.90 -164.5 0 0 1509.2444 216.4852
  A 39.59 38.90 -164.5 0 0 1557.7901 189.5800
  A 39.59 38.90 -164.5 0 0 1530.0356 141.5148
  A 39.59 38.90 -164.5 0 0 1481.4899 168.4200"
/>
<path class="logo-stroke" vector-effect="non-scaling-stroke" d="
  M 1813.9776 334.3402
  A 38.37 37.81 -113.0 0 0 1794.1657 384.4335
  A 38.37 37.81 -113.0 0 0 1843.9624 404.9798
  A 38.37 37.81 -113.0 0 0 1863.7743 354.8865
  A 38.37 37.81 -113.0 0 0 1813.9776 334.3402"
/>
<path class="logo-stroke" vector-effect="non-scaling-stroke" d="
  M 1477.2831 368.8852
  A 46.24 45.38 -165.9 0 0 1511.0748 424.1628
  A 46.24 45.38 -165.9 0 0 1566.9769 391.4148
  A 46.24 45.38 -165.9 0 0 1533.1852 336.1372
  A 46.24 45.38 -165.9 0 0 1477.2831 368.8852"
/>
<path class="logo-stroke" vector-effect="non-scaling-stroke" d="
  M 1342.4407 416.7830
  A 39.16 38.98 -86.5 0 0 1301.1427 453.4903
  A 39.16 38.98 -86.5 0 0 1337.6593 494.9570
  A 39.16 38.98 -86.5 0 0 1378.9573 458.2497
  A 39.16 38.98 -86.5 0 0 1342.4407 416.7830"
/>
<path class="logo-stroke" vector-effect="non-scaling-stroke" d="
  M 1355.88 636.92
  C 1356.16 635.34 1355.27 634.24 1353.87 633.68
  Q 1342.04 628.90 1331.01 630.68
  C 1302.93 635.22 1288.42 668.19 1303.58 691.65
  C 1314.38 708.35 1335.02 712.45 1353.09 704.33
  A 2.32 2.29 -80.0 0 0 1353.78 703.84
  Q 1355.73 701.84 1355.35 699.99
  Q 1349.91 673.68 1354.21 646.97
  Q 1355.14 641.18 1355.88 636.92"
/>
<path class="logo-stroke" vector-effect="non-scaling-stroke" d="
  M 1228.62 762.27
  A 39.43 39.43 0.0 0 0 1189.19 722.84
  A 39.43 39.43 0.0 0 0 1149.76 762.27
  A 39.43 39.43 0.0 0 0 1189.19 801.70
  A 39.43 39.43 0.0 0 0 1228.62 762.27"
/>
<path class="logo-stroke" vector-effect="non-scaling-stroke" d="
  M 711.74 281.44
  A 0.72 0.72 0.0 0 0 711.00 282.55
  C 783.44 387.23 849.12 480.04 932.25 597.74
  Q 940.10 608.85 942.57 617.56
  C 943.65 621.38 944.03 626.29 944.07 630.89
  C 944.17 641.71 944.65 655.55 944.56 669.04
  Q 944.21 726.63 944.50 802.23
  A 1.15 1.15 0.0 0 0 945.73 803.37
  Q 945.98 803.35 946.54 803.03
  Q 973.21 787.67 999.53 771.55
  C 1004.22 768.67 1006.32 766.71 1006.35 761.28
  Q 1006.93 671.44 1006.93 637.23
  Q 1006.93 623.42 1008.25 617.91
  Q 1010.71 607.64 1015.97 600.23
  C 1091.37 494.27 1177.85 369.75 1239.21 281.73
  A 0.69 0.69 0.0 0 0 1238.45 280.67
  Q 1216.16 287.03 1193.07 291.03
  Q 1147.88 298.86 1100.74 302.59
  Q 1057.20 306.04 1002.51 306.95
  C 945.86 307.90 886.76 306.80 829.69 300.76
  Q 787.79 296.33 732.79 286.14
  C 725.26 284.74 718.78 282.89 711.74 281.44"
/>
<path class="magni-glass-dark-stroke" vector-effect="non-scaling-stroke" d="
  M 1416.2397 664.3275
  A 154.38 152.28 -178.7 0 0 1567.1252 820.0708
  A 154.38 152.28 -178.7 0 0 1724.9203 671.3325
  A 154.38 152.28 -178.7 0 0 1574.0348 515.5892
  A 154.38 152.28 -178.7 0 0 1416.2397 664.3275"
/>
<path class="magni-glass-dark-stroke" vector-effect="non-scaling-stroke" d="
  M 1754.8299 844.7486
  A 13.50 13.50 0.0 0 0 1735.7380 844.7486
  L 1735.3986 845.0880
  A 13.50 13.50 0.0 0 0 1735.3986 864.1799
  L 1822.9101 951.6914
  A 13.50 13.50 0.0 0 0 1842.0020 951.6914
  L 1842.3414 951.3520
  A 13.50 13.50 0.0 0 0 1842.3414 932.2601
  L 1754.8299 844.7486"
/>
<path class="magni-glass-dark-stroke" vector-effect="non-scaling-stroke" d="
  M 1616.19 753.94
  Q 1622.72 761.88 1633.02 757.84
  A 3.55 3.52 -73.6 0 0 1633.91 757.35
  Q 1635.40 756.26 1638.63 754.33
  C 1642.47 752.03 1645.44 748.66 1648.89 745.83
  Q 1650.25 744.71 1654.05 740.66
  Q 1672.38 721.13 1679.21 696.48
  Q 1689.06 660.93 1675.47 627.23
  Q 1667.90 608.44 1652.68 592.58
  Q 1637.77 577.03 1619.22 567.57
  C 1615.24 565.54 1611.24 564.15 1606.62 562.40
  C 1586.65 554.84 1563.36 555.07 1543.15 561.81
  Q 1534.17 564.80 1525.43 569.37
  Q 1519.09 572.68 1519.13 580.48
  C 1519.16 585.49 1523.03 590.92 1527.38 593.57
  Q 1532.23 596.54 1537.53 594.52
  C 1544.24 591.97 1548.55 589.98 1553.78 588.72
  Q 1567.81 585.36 1580.20 586.93
  Q 1606.85 590.32 1626.40 608.45
  C 1639.02 620.14 1648.33 637.51 1651.18 654.01
  Q 1657.09 688.33 1635.94 716.69
  C 1634.26 718.93 1631.60 721.26 1629.83 723.48
  Q 1628.53 725.10 1624.86 728.18
  Q 1616.86 734.89 1616.35 735.37
  C 1611.54 739.90 1612.22 749.11 1616.19 753.94"
/>
</g>
<path class="logo-stroke" d="
  M 1594.80 405.28
  A 1.06 1.05 -66.5 0 0 1593.34 405.86
  C 1591.85 408.58 1589.78 413.55 1587.60 417.19
  Q 1575.56 437.33 1554.56 447.39
  Q 1544.34 452.28 1535.43 453.52
  Q 1525.54 454.89 1515.28 454.38
  C 1500.19 453.62 1484.78 446.87 1473.69 437.08
  Q 1459.19 424.27 1451.89 406.14
  C 1450.92 403.73 1448.91 405.00 1446.98 405.98
  Q 1415.80 421.78 1404.50 427.53
  A 1.57 1.57 0.0 0 0 1403.77 429.56
  C 1414.63 454.60 1409.64 483.97 1390.84 503.85
  Q 1383.52 511.59 1371.96 517.62
  C 1366.94 520.24 1361.34 521.81 1356.29 523.45
  A 1.78 1.77 81.0 0 0 1355.07 525.14
  L 1355.07 601.80
  A 1.77 1.77 0.0 0 0 1356.22 603.46
  L 1366.41 607.24
  A 2.39 2.39 0.0 0 1 1367.80 610.36
  C 1361.11 627.12 1355.96 646.14 1355.03 664.00
  C 1354.11 681.85 1356.49 699.64 1362.42 716.41
  C 1363.93 720.68 1365.71 725.07 1365.28 728.09
  A 1.33 1.30 76.1 0 1 1364.78 728.94
  Q 1360.67 732.11 1357.53 733.48
  Q 1340.51 740.92 1322.20 736.28
  Q 1300.93 730.90 1286.14 714.57
  A 2.49 2.48 -36.2 0 0 1283.05 714.09
  L 1252.69 731.62
  A 2.31 2.31 0.0 0 0 1251.74 734.59
  Q 1261.38 755.72 1256.01 778.20
  C 1249.70 804.59 1230.75 821.84 1205.26 828.98
  Q 1179.59 836.17 1156.60 822.65
  Q 1149.76 818.64 1145.41 815.11
  Q 1122.01 796.16 1119.86 765.72
  Q 1119.05 754.25 1122.23 743.02
  Q 1130.09 715.36 1154.59 701.14
  C 1173.41 690.21 1196.36 689.98 1216.03 698.72
  Q 1223.41 702.00 1229.93 706.34
  A 1.17 1.17 0.0 0 0 1231.14 706.39
  L 1267.46 686.39
  A 3.20 3.19 69.7 0 0 1269.04 682.94
  C 1261.39 646.26 1283.50 610.27 1320.73 602.85
  A 1.71 1.71 0.0 0 0 1322.11 601.17
  L 1322.11 523.94
  A 2.02 2.02 0.0 0 0 1320.71 522.02
  C 1316.30 520.61 1311.96 519.70 1308.12 517.70
  Q 1293.91 510.25 1284.84 498.43
  C 1265.65 473.43 1265.78 436.57 1285.71 411.67
  Q 1295.72 399.17 1310.22 392.64
  Q 1330.91 383.33 1352.30 386.98
  Q 1361.59 388.57 1369.74 392.42
  Q 1378.37 396.50 1385.50 401.78
  A 1.31 1.31 0.0 0 0 1386.92 401.88
  C 1389.48 400.44 1391.92 398.89 1394.36 397.72
  Q 1430.23 380.52 1443.22 373.72
  C 1447.06 371.71 1446.29 366.32 1447.18 362.83
  C 1453.64 337.32 1468.78 318.64 1494.08 310.09
  Q 1500.23 308.01 1504.41 307.01
  A 1.91 1.91 0.0 0 0 1505.86 305.16
  Q 1505.86 277.14 1505.87 247.99
  C 1505.87 245.16 1504.28 244.38 1501.61 243.84
  Q 1481.05 239.73 1467.34 223.94
  Q 1459.83 215.30 1455.37 205.67
  C 1443.58 180.19 1450.68 148.11 1470.72 128.75
  C 1475.72 123.93 1483.89 118.14 1490.62 115.32
  Q 1510.98 106.81 1531.48 110.28
  Q 1548.42 113.15 1563.48 125.08
  C 1581.95 139.71 1590.39 162.38 1588.91 185.71
  Q 1587.67 205.22 1575.72 221.07
  Q 1561.95 239.33 1539.83 244.45
  A 2.23 2.23 0.0 0 0 1538.10 246.65
  Q 1538.31 268.18 1538.58 304.14
  Q 1538.60 306.48 1540.47 307.47
  A 1.74 1.67 -32.0 0 0 1541.42 307.67
  L 1543.81 307.47
  A 3.07 3.02 -38.1 0 1 1544.98 307.60
  C 1569.86 315.19 1587.86 331.44 1594.99 356.82
  Q 1596.53 362.31 1597.89 368.82
  Q 1597.99 369.27 1599.32 370.75
  Q 1599.97 371.47 1601.30 372.11
  Q 1602.24 372.55 1690.85 416.75
  A 2.94 2.93 -45.1 0 0 1693.49 416.74
  Q 1749.26 388.22 1759.82 382.83
  C 1761.79 381.82 1762.00 380.07 1761.67 377.86
  Q 1757.35 349.07 1774.74 326.57
  C 1778.18 322.11 1782.56 317.09 1787.20 313.68
  Q 1801.59 303.10 1817.52 300.82
  Q 1848.15 296.43 1872.02 315.69
  C 1890.10 330.28 1898.96 351.61 1897.36 374.61
  C 1895.40 402.58 1877.50 423.59 1851.95 433.69
  Q 1840.55 438.19 1828.53 437.68
  C 1806.64 436.74 1789.28 427.63 1775.50 411.27
  A 1.45 1.44 -37.9 0 0 1773.55 411.03
  Q 1767.97 415.07 1760.94 418.68
  Q 1724.91 437.23 1707.42 445.96
  A 2.60 2.58 -13.5 0 0 1705.99 448.27
  L 1705.99 495.97
  A 1.63 1.63 0.0 0 1 1703.64 497.43
  Q 1696.45 493.85 1686.28 487.98
  C 1682.22 485.63 1677.41 482.82 1675.26 478.68
  A 1.18 1.14 31.8 0 1 1675.12 478.13
  L 1674.37 446.58
  A 3.01 3.01 0.0 0 0 1672.70 443.95
  L 1594.80 405.28
  Z
  M 1481.4899 168.4200
  A 39.59 38.90 -164.5 0 0 1509.2444 216.4852
  A 39.59 38.90 -164.5 0 0 1557.7901 189.5800
  A 39.59 38.90 -164.5 0 0 1530.0356 141.5148
  A 39.59 38.90 -164.5 0 0 1481.4899 168.4200
  Z
  M 1813.9776 334.3402
  A 38.37 37.81 -113.0 0 0 1794.1657 384.4335
  A 38.37 37.81 -113.0 0 0 1843.9624 404.9798
  A 38.37 37.81 -113.0 0 0 1863.7743 354.8865
  A 38.37 37.81 -113.0 0 0 1813.9776 334.3402
  Z
  M 1477.2831 368.8852
  A 46.24 45.38 -165.9 0 0 1511.0748 424.1628
  A 46.24 45.38 -165.9 0 0 1566.9769 391.4148
  A 46.24 45.38 -165.9 0 0 1533.1852 336.1372
  A 46.24 45.38 -165.9 0 0 1477.2831 368.8852
  Z
  M 1342.4407 416.7830
  A 39.16 38.98 -86.5 0 0 1301.1427 453.4903
  A 39.16 38.98 -86.5 0 0 1337.6593 494.9570
  A 39.16 38.98 -86.5 0 0 1378.9573 458.2497
  A 39.16 38.98 -86.5 0 0 1342.4407 416.7830
  Z
  M 1355.88 636.92
  C 1356.16 635.34 1355.27 634.24 1353.87 633.68
  Q 1342.04 628.90 1331.01 630.68
  C 1302.93 635.22 1288.42 668.19 1303.58 691.65
  C 1314.38 708.35 1335.02 712.45 1353.09 704.33
  A 2.32 2.29 -80.0 0 0 1353.78 703.84
  Q 1355.73 701.84 1355.35 699.99
  Q 1349.91 673.68 1354.21 646.97
  Q 1355.14 641.18 1355.88 636.92
  Z
  M 1228.62 762.27
  A 39.43 39.43 0.0 0 0 1189.19 722.84
  A 39.43 39.43 0.0 0 0 1149.76 762.27
  A 39.43 39.43 0.0 0 0 1189.19 801.70
  A 39.43 39.43 0.0 0 0 1228.62 762.27
  Z"
/>
<path class="logo-stroke" d="
  M 294.32 439.70
  L 232.45 466.40
  A 1.17 1.17 0.0 0 0 231.75 467.62
  Q 232.58 474.23 231.79 482.00
  Q 231.15 488.26 228.01 495.69
  C 217.68 520.14 192.99 535.73 166.16 532.19
  Q 153.89 530.58 142.71 523.79
  C 125.40 513.30 114.18 494.00 113.81 473.81
  C 113.56 459.69 118.22 445.30 127.29 434.64
  Q 133.09 427.83 138.98 423.75
  Q 146.03 418.87 155.72 416.09
  Q 165.39 413.33 177.43 413.94
  C 192.49 414.71 207.57 421.95 217.48 433.00
  A 3.25 3.25 0.0 0 0 221.20 433.81
  Q 225.05 432.13 279.20 408.73
  Q 280.87 408.01 281.39 406.21
  Q 281.62 405.40 281.42 402.77
  Q 278.54 364.32 304.93 339.11
  Q 307.12 337.01 312.58 332.96
  C 325.78 323.17 341.86 318.61 358.13 319.16
  C 363.51 319.34 369.43 320.65 371.40 316.90
  Q 395.99 269.81 409.79 243.11
  A 3.81 3.80 41.7 0 0 409.56 239.24
  C 405.77 233.61 403.44 230.83 401.33 225.97
  C 399.76 222.34 398.18 219.62 397.05 215.72
  Q 391.63 196.99 397.12 177.91
  Q 397.95 175.02 399.10 172.60
  C 400.38 169.93 400.90 168.07 402.41 165.81
  Q 408.93 156.04 413.97 151.21
  Q 425.51 140.15 442.08 136.00
  Q 454.48 132.88 466.93 135.11
  Q 479.14 137.29 489.98 144.54
  Q 497.95 149.88 505.00 158.76
  Q 513.80 169.86 516.67 184.35
  Q 517.81 190.16 517.76 195.27
  Q 517.53 215.49 506.85 231.11
  Q 499.63 241.66 488.43 248.94
  Q 479.68 254.63 469.51 256.83
  Q 458.91 259.12 448.98 258.20
  Q 445.29 257.86 443.87 260.59
  Q 418.64 309.00 406.06 333.21
  A 2.10 2.10 0.0 0 0 406.49 335.72
  Q 425.12 353.07 430.99 377.46
  C 431.92 381.31 432.17 385.33 432.40 389.26
  Q 433.94 415.60 419.93 436.53
  A 1.46 1.46 0.0 0 0 420.09 438.35
  L 477.25 497.99
  A 1.66 1.66 0.0 0 0 479.23 498.31
  C 486.34 494.59 494.17 490.96 501.89 490.09
  Q 523.05 487.72 539.93 496.61
  Q 550.33 502.09 559.34 512.45
  Q 566.73 520.96 570.14 531.16
  Q 573.97 542.63 574.11 552.51
  Q 574.21 559.98 571.81 570.20
  Q 570.97 573.79 569.67 576.55
  C 568.36 579.34 567.41 582.30 565.95 584.74
  C 553.35 605.82 531.17 618.08 506.68 616.83
  Q 488.00 615.87 472.80 604.57
  Q 462.84 597.16 456.25 585.53
  C 445.01 565.73 444.67 543.01 455.36 522.81
  A 1.27 1.26 -53.6 0 0 455.14 521.32
  Q 436.83 502.76 414.08 480.11
  C 408.04 474.09 401.84 466.86 396.14 460.48
  Q 394.73 458.90 392.78 459.78
  Q 385.79 462.98 381.34 464.78
  Q 361.91 472.65 339.72 467.85
  Q 331.34 466.03 324.25 462.78
  Q 307.07 454.90 295.48 440.00
  A 0.99 0.97 59.1 0 0 294.32 439.70
  Z
  M 482.49 196.37
  A 26.60 26.60 0.0 0 0 455.89 169.77
  A 26.60 26.60 0.0 0 0 429.29 196.37
  A 26.60 26.60 0.0 0 0 455.89 222.97
  A 26.60 26.60 0.0 0 0 482.49 196.37
  Z
  M 395.2971 377.3487
  A 41.71 41.06 -23.2 0 0 340.7847 356.0403
  A 41.71 41.06 -23.2 0 0 318.6229 410.2113
  A 41.71 41.06 -23.2 0 0 373.1353 431.5197
  A 41.71 41.06 -23.2 0 0 395.2971 377.3487
  Z
  M 148.0497 469.2228
  A 25.40 25.05 -170.9 0 0 169.1681 497.9747
  A 25.40 25.05 -170.9 0 0 198.2103 477.2572
  A 25.40 25.05 -170.9 0 0 177.0919 448.5053
  A 25.40 25.05 -170.9 0 0 148.0497 469.2228
  Z
  M 539.73 553.33
  A 29.11 29.11 0.0 0 0 510.62 524.22
  A 29.11 29.11 0.0 0 0 481.51 553.33
  A 29.11 29.11 0.0 0 0 510.62 582.44
  A 29.11 29.11 0.0 0 0 539.73 553.33
  Z"
/>
<path class="logo-stroke" d="
  M 906.13 627.30
  Q 904.59 623.91 904.28 623.47
  C 815.54 497.73 727.44 371.76 640.36 245.08
  Q 632.75 234.02 631.25 229.02
  Q 627.81 217.53 633.08 206.12
  C 639.38 192.47 654.41 184.04 668.17 177.17
  Q 674.62 173.95 683.53 170.93
  Q 712.31 161.18 734.78 156.59
  Q 778.83 147.60 812.26 144.07
  Q 857.76 139.27 877.76 138.11
  Q 907.69 136.39 934.75 135.61
  Q 964.13 134.76 1008.74 135.61
  Q 1031.29 136.04 1080.15 139.03
  Q 1086.88 139.44 1087.87 139.41
  C 1093.05 139.22 1097.64 140.46 1103.36 140.95
  Q 1141.67 144.24 1174.49 149.32
  Q 1199.90 153.25 1230.96 160.35
  Q 1237.99 161.96 1256.53 167.27
  Q 1279.79 173.93 1298.29 185.73
  Q 1303.95 189.33 1309.44 194.70
  Q 1314.79 199.94 1317.62 206.34
  Q 1323.44 219.50 1317.47 232.82
  C 1315.45 237.33 1312.56 241.31 1309.10 246.39
  C 1268.67 305.79 1211.06 387.35 1170.99 445.25
  Q 1123.19 514.31 1045.83 625.25
  A 7.13 7.04 -25.0 0 0 1044.61 628.53
  Q 1044.06 633.64 1044.05 635.50
  Q 1044.01 661.00 1044.24 787.99
  Q 1044.24 791.78 1040.36 793.87
  Q 1010.87 809.74 941.53 847.31
  C 938.44 848.99 934.58 850.45 932.02 851.21
  C 921.51 854.34 909.93 848.01 907.85 836.93
  Q 906.73 830.98 906.73 824.25
  Q 906.78 653.59 906.71 631.50
  Q 906.71 630.88 906.40 628.25
  A 3.35 3.10 31.4 0 0 906.13 627.30
  Z
  M 1272.56 224.65
  C 1278.01 220.57 1273.40 217.97 1269.71 215.35
  Q 1267.34 213.67 1265.00 212.56
  Q 1256.43 208.50 1250.55 206.69
  C 1221.63 197.75 1191.42 192.11 1161.00 188.58
  Q 1148.00 187.07 1112.86 183.50
  Q 1093.05 181.48 1064.59 180.24
  Q 1020.78 178.33 1015.25 178.27
  Q 995.49 178.08 959.36 178.05
  C 929.15 178.02 896.33 179.69 868.00 181.34
  Q 836.04 183.21 812.41 185.97
  Q 792.80 188.27 769.51 191.56
  Q 739.49 195.80 712.37 203.36
  Q 697.60 207.48 692.25 210.09
  Q 682.31 214.93 680.29 216.82
  Q 678.00 218.98 677.13 219.89
  A 1.70 1.70 0.0 0 0 677.12 222.24
  Q 680.93 226.22 685.96 228.57
  Q 705.66 237.81 726.71 242.85
  Q 782.82 256.29 842.52 261.62
  Q 845.45 261.88 869.83 263.95
  Q 881.65 264.95 897.20 265.49
  Q 926.11 266.48 945.25 266.95
  C 980.57 267.81 1011.47 266.56 1049.73 265.46
  Q 1050.67 265.44 1055.75 264.37
  A 7.94 7.91 38.8 0 1 1057.43 264.19
  Q 1071.65 264.13 1084.99 262.72
  C 1092.24 261.96 1098.87 262.24 1106.01 261.26
  Q 1111.80 260.46 1118.97 259.82
  C 1146.80 257.33 1175.69 252.69 1202.04 247.80
  C 1222.89 243.93 1242.64 238.87 1260.99 231.47
  Q 1266.39 229.29 1272.56 224.65
  Z
  M 711.74 281.44
  A 0.72 0.72 0.0 0 0 711.00 282.55
  C 783.44 387.23 849.12 480.04 932.25 597.74
  Q 940.10 608.85 942.57 617.56
  C 943.65 621.38 944.03 626.29 944.07 630.89
  C 944.17 641.71 944.65 655.55 944.56 669.04
  Q 944.21 726.63 944.50 802.23
  A 1.15 1.15 0.0 0 0 945.73 803.37
  Q 945.98 803.35 946.54 803.03
  Q 973.21 787.67 999.53 771.55
  C 1004.22 768.67 1006.32 766.71 1006.35 761.28
  Q 1006.93 671.44 1006.93 637.23
  Q 1006.93 623.42 1008.25 617.91
  Q 1010.71 607.64 1015.97 600.23
  C 1091.37 494.27 1177.85 369.75 1239.21 281.73
  A 0.69 0.69 0.0 0 0 1238.45 280.67
  Q 1216.16 287.03 1193.07 291.03
  Q 1147.88 298.86 1100.74 302.59
  Q 1057.20 306.04 1002.51 306.95
  C 945.86 307.90 886.76 306.80 829.69 300.76
  Q 787.79 296.33 732.79 286.14
  C 725.26 284.74 718.78 282.89 711.74 281.44
  Z"
/>
<ellipse class="blue-mol-stroke" cx="0.00" cy="0.00" transform="translate(1519.64,179.00) rotate(-164.5)" rx="39.59" ry="38.90"/>
<path fill="#525554" d="
  M 711.74 281.44
  C 718.78 282.89 725.26 284.74 732.79 286.14
  Q 787.79 296.33 829.69 300.76
  C 886.76 306.80 945.86 307.90 1002.51 306.95
  Q 1057.20 306.04 1100.74 302.59
  Q 1147.88 298.86 1193.07 291.03
  Q 1216.16 287.03 1238.45 280.67
  A 0.69 0.69 0.0 0 1 1239.21 281.73
  C 1177.85 369.75 1091.37 494.27 1015.97 600.23
  Q 1010.71 607.64 1008.25 617.91
  Q 1006.93 623.42 1006.93 637.23
  Q 1006.93 671.44 1006.35 761.28
  C 1006.32 766.71 1004.22 768.67 999.53 771.55
  Q 973.21 787.67 946.54 803.03
  Q 945.98 803.35 945.73 803.37
  A 1.15 1.15 0.0 0 1 944.50 802.23
  Q 944.21 726.63 944.56 669.04
  C 944.65 655.55 944.17 641.71 944.07 630.89
  C 944.03 626.29 943.65 621.38 942.57 617.56
  Q 940.10 608.85 932.25 597.74
  C 849.12 480.04 783.44 387.23 711.00 282.55
  A 0.72 0.72 0.0 0 1 711.74 281.44
  Z"
/>
<ellipse class="blue-mol-stroke" cx="0.00" cy="0.00" transform="translate(1828.97,369.66) rotate(-113.0)" rx="38.37" ry="37.81"/>
<ellipse class="blue-mol-stroke" cx="0.00" cy="0.00" transform="translate(1522.13,380.15) rotate(-165.9)" rx="46.24" ry="45.38"/>
<ellipse class="blue-mol-stroke" cx="0.00" cy="0.00" transform="translate(1340.05,455.87) rotate(-86.5)" rx="39.16" ry="38.98"/>
<path class="logo-stroke" d="
  M 1709.04 789.95
  Q 1720.22 801.94 1727.23 809.22
  C 1728.47 810.50 1730.34 809.37 1731.76 808.94
  Q 1746.64 804.46 1759.50 810.26
  C 1769.47 814.76 1776.55 821.21 1785.47 830.23
  Q 1853.13 898.53 1861.22 906.65
  Q 1861.31 906.75 1867.97 914.02
  Q 1871.78 918.18 1873.94 922.26
  Q 1875.28 924.79 1877.23 931.83
  C 1881.12 945.89 1875.91 961.64 1866.45 972.21
  C 1860.69 978.66 1852.43 984.28 1843.57 986.38
  Q 1819.54 992.09 1801.62 974.54
  Q 1768.09 941.68 1720.28 894.23
  C 1713.78 887.77 1706.53 880.15 1702.76 872.06
  Q 1696.51 858.60 1700.08 843.07
  Q 1700.33 842.02 1702.57 835.51
  C 1703.13 833.90 1702.22 832.22 1700.98 830.96
  Q 1693.79 823.60 1684.57 813.73
  A 1.43 1.43 0.0 0 0 1682.69 813.55
  Q 1663.68 827.39 1645.36 835.55
  Q 1635.37 839.99 1620.44 844.38
  C 1598.95 850.71 1574.87 852.59 1552.74 850.52
  Q 1522.53 847.68 1494.95 835.89
  Q 1466.85 823.89 1444.63 803.98
  Q 1416.57 778.86 1400.32 743.46
  Q 1391.25 723.72 1387.25 702.51
  C 1384.63 688.64 1383.13 674.11 1383.82 660.30
  Q 1386.47 607.58 1415.57 564.32
  C 1434.42 536.29 1461.95 514.15 1492.99 499.98
  Q 1513.41 490.67 1533.54 486.78
  Q 1567.89 480.16 1602.44 486.34
  Q 1624.16 490.23 1645.38 499.47
  Q 1668.04 509.35 1692.16 528.92
  Q 1693.06 529.65 1700.95 537.10
  C 1705.86 541.74 1709.70 546.58 1713.48 550.42
  C 1718.08 555.09 1721.29 560.27 1725.35 565.50
  Q 1727.29 568.01 1729.62 571.93
  Q 1742.14 593.06 1748.95 613.74
  C 1753.37 627.14 1756.55 642.99 1757.19 657.03
  Q 1758.41 683.95 1752.88 707.48
  Q 1750.30 718.46 1744.69 733.22
  Q 1737.91 751.11 1724.75 769.89
  Q 1721.46 774.59 1716.88 779.82
  Q 1710.11 787.55 1708.99 789.01
  A 0.73 0.73 0.0 0 0 1709.04 789.95
  Z
  M 1416.2397 664.3275
  A 154.38 152.28 -178.7 0 0 1567.1252 820.0708
  A 154.38 152.28 -178.7 0 0 1724.9203 671.3325
  A 154.38 152.28 -178.7 0 0 1574.0348 515.5892
  A 154.38 152.28 -178.7 0 0 1416.2397 664.3275
  Z
  M 1754.8299 844.7486
  A 13.50 13.50 0.0 0 0 1735.7380 844.7486
  L 1735.3986 845.0880
  A 13.50 13.50 0.0 0 0 1735.3986 864.1799
  L 1822.9101 951.6914
  A 13.50 13.50 0.0 0 0 1842.0020 951.6914
  L 1842.3414 951.3520
  A 13.50 13.50 0.0 0 0 1842.3414 932.2601
  L 1754.8299 844.7486
  Z"
/>
<path class="magni-glass-light-stroke" d="
  M 1416.2397 664.3275
  A 154.38 152.28 -178.7 0 1 1574.0348 515.5892
  A 154.38 152.28 -178.7 0 1 1724.9203 671.3325
  A 154.38 152.28 -178.7 0 1 1567.1252 820.0708
  A 154.38 152.28 -178.7 0 1 1416.2397 664.3275
  Z
  M 1616.19 753.94
  Q 1622.72 761.88 1633.02 757.84
  A 3.55 3.52 -73.6 0 0 1633.91 757.35
  Q 1635.40 756.26 1638.63 754.33
  C 1642.47 752.03 1645.44 748.66 1648.89 745.83
  Q 1650.25 744.71 1654.05 740.66
  Q 1672.38 721.13 1679.21 696.48
  Q 1689.06 660.93 1675.47 627.23
  Q 1667.90 608.44 1652.68 592.58
  Q 1637.77 577.03 1619.22 567.57
  C 1615.24 565.54 1611.24 564.15 1606.62 562.40
  C 1586.65 554.84 1563.36 555.07 1543.15 561.81
  Q 1534.17 564.80 1525.43 569.37
  Q 1519.09 572.68 1519.13 580.48
  C 1519.16 585.49 1523.03 590.92 1527.38 593.57
  Q 1532.23 596.54 1537.53 594.52
  C 1544.24 591.97 1548.55 589.98 1553.78 588.72
  Q 1567.81 585.36 1580.20 586.93
  Q 1606.85 590.32 1626.40 608.45
  C 1639.02 620.14 1648.33 637.51 1651.18 654.01
  Q 1657.09 688.33 1635.94 716.69
  C 1634.26 718.93 1631.60 721.26 1629.83 723.48
  Q 1628.53 725.10 1624.86 728.18
  Q 1616.86 734.89 1616.35 735.37
  C 1611.54 739.90 1612.22 749.11 1616.19 753.94
  Z"
/>
<path class="logo-stroke" d="
  M 1616.19 753.94
  C 1612.22 749.11 1611.54 739.90 1616.35 735.37
  Q 1616.86 734.89 1624.86 728.18
  Q 1628.53 725.10 1629.83 723.48
  C 1631.60 721.26 1634.26 718.93 1635.94 716.69
  Q 1657.09 688.33 1651.18 654.01
  C 1648.33 637.51 1639.02 620.14 1626.40 608.45
  Q 1606.85 590.32 1580.20 586.93
  Q 1567.81 585.36 1553.78 588.72
  C 1548.55 589.98 1544.24 591.97 1537.53 594.52
  Q 1532.23 596.54 1527.38 593.57
  C 1523.03 590.92 1519.16 585.49 1519.13 580.48
  Q 1519.09 572.68 1525.43 569.37
  Q 1534.17 564.80 1543.15 561.81
  C 1563.36 555.07 1586.65 554.84 1606.62 562.40
  C 1611.24 564.15 1615.24 565.54 1619.22 567.57
  Q 1637.77 577.03 1652.68 592.58
  Q 1667.90 608.44 1675.47 627.23
  Q 1689.06 660.93 1679.21 696.48
  Q 1672.38 721.13 1654.05 740.66
  Q 1650.25 744.71 1648.89 745.83
  C 1645.44 748.66 1642.47 752.03 1638.63 754.33
  Q 1635.40 756.26 1633.91 757.35
  A 3.55 3.52 -73.6 0 1 1633.02 757.84
  Q 1622.72 761.88 1616.19 753.94
  Z"
/>
<path class="logo-stroke" d="
  M 628.83 751.88
  A 0.61 0.60 43.0 0 0 628.13 751.90
  Q 568.53 797.23 565.66 799.42
  C 563.99 800.70 564.41 802.11 565.45 803.79
  Q 569.06 809.57 571.16 818.83
  Q 576.50 842.36 567.87 862.90
  Q 566.82 865.41 561.92 873.50
  C 553.86 886.80 540.99 897.11 527.04 902.06
  Q 501.30 911.17 475.93 901.80
  C 459.73 895.81 446.17 882.90 438.41 867.15
  Q 428.18 846.44 432.36 822.81
  Q 433.37 817.14 435.07 813.11
  Q 436.97 808.60 439.45 803.95
  A 1.93 1.92 -57.5 0 0 438.91 801.50
  L 372.91 752.38
  A 1.02 1.01 -43.8 0 0 371.73 752.36
  Q 369.19 754.08 365.49 756.44
  Q 353.46 764.10 338.94 767.13
  C 326.61 769.70 314.56 768.56 303.26 764.44
  Q 296.83 762.10 288.66 757.08
  Q 270.34 745.80 261.54 724.78
  Q 255.89 711.28 256.18 698.04
  Q 256.86 667.39 277.30 645.94
  C 280.68 642.38 285.82 638.78 289.32 636.59
  Q 297.83 631.24 307.21 628.79
  Q 332.35 622.23 356.17 632.83
  Q 367.63 637.93 376.81 647.15
  Q 391.46 661.87 396.17 681.21
  Q 401.30 702.27 393.43 722.43
  A 1.43 1.41 33.5 0 0 393.75 723.94
  Q 398.02 728.18 402.73 731.57
  Q 422.56 745.81 454.18 768.20
  Q 455.33 769.02 460.66 773.91
  Q 462.78 775.86 465.83 774.08
  Q 482.67 764.21 501.48 764.28
  Q 515.25 764.33 525.53 768.79
  Q 532.01 771.60 538.89 775.82
  A 1.27 1.25 41.8 0 0 540.31 775.75
  Q 582.13 743.88 607.53 724.54
  Q 609.80 722.81 609.35 720.16
  A 2.41 2.28 28.2 0 0 609.12 719.47
  Q 607.60 716.41 607.49 715.45
  Q 605.70 700.10 607.49 689.23
  Q 612.61 658.12 639.40 642.09
  Q 646.51 637.84 653.91 635.76
  C 663.06 633.20 673.89 631.69 682.83 633.14
  Q 706.20 636.93 722.92 653.35
  Q 730.17 660.46 735.71 671.50
  Q 740.66 681.36 741.78 693.50
  Q 743.96 717.19 731.43 737.70
  Q 725.75 747.00 718.09 753.35
  Q 713.39 757.26 708.02 760.25
  C 689.08 770.82 667.53 771.83 647.17 763.97
  Q 643.41 762.52 641.74 761.36
  C 639.96 760.11 636.66 758.38 635.04 756.89
  Q 632.01 754.08 628.83 751.88
  Z
  M 320.7841 660.3691
  A 37.55 36.65 -99.9 0 0 291.1357 703.6612
  A 37.55 36.65 -99.9 0 0 333.6959 734.3509
  A 37.55 36.65 -99.9 0 0 363.3443 691.0588
  A 37.55 36.65 -99.9 0 0 320.7841 660.3691
  Z
  M 709.08 701.32
  A 34.71 34.71 0.0 0 0 674.37 666.61
  A 34.71 34.71 0.0 0 0 639.66 701.32
  A 34.71 34.71 0.0 0 0 674.37 736.03
  A 34.71 34.71 0.0 0 0 709.08 701.32
  Z
  M 537.4866 823.8448
  A 37.30 36.83 -19.1 0 0 490.1886 801.2475
  A 37.30 36.83 -19.1 0 0 466.9934 848.2552
  A 37.30 36.83 -19.1 0 0 514.2914 870.8525
  A 37.30 36.83 -19.1 0 0 537.4866 823.8448
  Z"
/>
<path class="blue-mol-stroke" d="
  M 1353.87 633.68
  C 1355.27 634.24 1356.16 635.34 1355.88 636.92
  Q 1355.14 641.18 1354.21 646.97
  Q 1349.91 673.68 1355.35 699.99
  Q 1355.73 701.84 1353.78 703.84
  A 2.32 2.29 -80.0 0 1 1353.09 704.33
  C 1335.02 712.45 1314.38 708.35 1303.58 691.65
  C 1288.42 668.19 1302.93 635.22 1331.01 630.68
  Q 1342.04 628.90 1353.87 633.68
  Z"
/>
<circle class="blue-mol-stroke" cx="1189.19" cy="762.27" r="39.43"/>
<rect class="magni-glass-light-stroke" x="-13.74" y="-75.38" transform="translate(1788.87,898.22) rotate(-45.0)" width="27.48" height="150.76" rx="13.50"/>
<path class="logo-font-stroke" d="
  M 1091.09 1129.13
  A 0.38 0.37 -0.0 0 1 1090.71 1129.50
  L 1055.72 1129.50
  A 0.35 0.35 0.0 0 0 1055.37 1129.85
  L 1055.37 1247.18
  A 0.32 0.32 0.0 0 1 1055.05 1247.50
  L 1007.59 1247.50
  A 0.54 0.53 0.0 0 1 1007.05 1246.97
  L 1007.05 1129.93
  A 0.43 0.42 -90.0 0 0 1006.63 1129.50
  L 986.75 1129.50
  A 0.38 0.38 0.0 0 1 986.37 1129.12
  L 986.37 1097.21
  A 0.46 0.46 0.0 0 1 986.83 1096.75
  L 1006.52 1096.75
  A 0.61 0.60 -1.3 0 0 1007.13 1096.12
  C 1006.20 1073.59 1012.69 1051.80 1035.04 1042.69
  C 1050.70 1036.31 1067.10 1036.78 1084.75 1037.96
  Q 1094.69 1038.62 1100.60 1039.93
  A 0.71 0.70 -83.9 0 1 1101.15 1040.62
  L 1101.15 1073.33
  A 0.59 0.59 0.0 0 1 1100.63 1073.92
  C 1096.95 1074.38 1093.12 1072.73 1090.02 1072.05
  Q 1078.10 1069.43 1066.08 1072.06
  Q 1057.71 1073.89 1055.44 1081.92
  Q 1053.62 1088.34 1053.80 1096.15
  A 0.62 0.62 0.0 0 0 1054.42 1096.75
  L 1090.48 1096.75
  A 0.61 0.61 0.0 0 1 1091.09 1097.36
  L 1091.09 1129.13
  Z"
/>
<path class="logo-font-stroke" d="
  M 342.89 1246.78
  Q 342.87 1217.40 342.93 1173.27
  Q 342.94 1160.32 341.13 1148.91
  Q 338.84 1134.49 324.90 1132.19
  Q 313.85 1130.37 303.99 1133.52
  Q 296.10 1136.03 288.77 1140.28
  A 0.76 0.73 75.8 0 0 288.40 1140.93
  L 288.40 1246.90
  A 0.61 0.60 -0.0 0 1 287.79 1247.50
  L 240.40 1247.50
  A 0.33 0.32 0.0 0 1 240.07 1247.18
  L 240.07 1039.14
  A 0.64 0.64 0.0 0 1 240.71 1038.50
  L 287.85 1038.50
  A 0.55 0.55 0.0 0 1 288.40 1039.05
  L 288.40 1112.71
  A 0.31 0.31 0.0 0 0 288.90 1112.96
  C 298.72 1105.43 310.33 1098.11 321.69 1094.81
  Q 334.97 1090.96 350.53 1093.44
  Q 379.36 1098.03 388.03 1124.73
  Q 391.32 1134.87 391.49 1149.25
  Q 391.54 1153.21 391.52 1246.91
  A 0.59 0.59 0.0 0 1 390.93 1247.50
  L 343.61 1247.50
  A 0.72 0.72 0.0 0 1 342.89 1246.78
  Z"
/>
<rect class="logo-font-stroke" x="1118.19" y="1038.49" width="51.02" height="36.76" rx="0.43"/>
<rect class="logo-font-stroke" x="1213.51" y="1038.51" width="48.34" height="209.00" rx="0.69"/>
<path class="logo-font-stroke" d="
  M 1358.68 1130.16
  Q 1358.55 1180.70 1358.80 1196.99
  Q 1358.88 1201.76 1361.24 1207.80
  C 1363.30 1213.07 1368.58 1216.36 1374.69 1217.18
  C 1382.98 1218.30 1392.31 1216.52 1399.78 1213.17
  Q 1400.75 1212.73 1403.37 1213.06
  A 0.61 0.60 3.8 0 1 1403.90 1213.66
  L 1403.90 1245.63
  A 0.73 0.72 83.5 0 1 1403.34 1246.34
  Q 1382.90 1251.25 1361.02 1250.35
  C 1341.80 1249.55 1321.18 1244.16 1314.21 1224.61
  Q 1310.28 1213.60 1310.31 1199.75
  Q 1310.39 1161.26 1310.30 1130.07
  A 0.57 0.57 0.0 0 0 1309.73 1129.50
  L 1290.81 1129.50
  A 0.37 0.37 0.0 0 1 1290.44 1129.13
  L 1290.44 1097.23
  A 0.44 0.44 0.0 0 1 1290.88 1096.79
  L 1309.70 1096.79
  A 0.65 0.64 -90.0 0 0 1310.34 1096.14
  L 1310.34 1054.01
  A 0.55 0.54 0.0 0 1 1310.89 1053.47
  L 1357.73 1053.47
  A 0.92 0.91 -0.0 0 1 1358.65 1054.38
  L 1358.65 1096.21
  A 0.54 0.54 0.0 0 0 1359.19 1096.75
  L 1403.29 1096.75
  A 0.61 0.61 0.0 0 1 1403.90 1097.36
  L 1403.90 1129.01
  A 0.50 0.49 0.0 0 1 1403.40 1129.50
  L 1359.34 1129.50
  A 0.66 0.66 0.0 0 0 1358.68 1130.16
  Z"
/>
<path class="logo-font-stroke" d="
  M 581.61 1200.89
  L 581.61 1238.63
  A 0.35 0.35 0.0 0 1 581.40 1238.95
  C 557.73 1249.02 533.26 1252.53 507.75 1251.25
  C 485.70 1250.14 461.84 1244.06 445.73 1228.06
  C 429.39 1211.84 423.96 1190.28 425.15 1167.46
  C 426.00 1151.19 430.18 1136.21 439.41 1123.60
  Q 450.57 1108.37 467.64 1100.51
  C 487.36 1091.42 510.71 1090.11 531.81 1093.97
  Q 545.49 1096.47 554.96 1102.21
  C 573.88 1113.67 582.91 1134.06 584.07 1155.64
  Q 584.66 1166.67 584.34 1180.41
  A 0.60 0.60 0.0 0 1 583.74 1181.00
  L 474.49 1181.00
  A 0.52 0.52 0.0 0 0 473.97 1181.57
  Q 474.68 1190.91 478.56 1197.96
  C 488.15 1215.37 509.81 1218.19 527.79 1217.43
  C 544.34 1216.74 562.14 1209.95 575.70 1200.69
  A 2.57 2.52 27.2 0 1 577.15 1200.24
  L 580.95 1200.24
  A 0.66 0.65 0.0 0 1 581.61 1200.89
  Z
  M 536.23 1152.52
  C 536.18 1143.14 533.55 1133.31 526.05 1127.25
  A 5.23 4.95 76.3 0 0 525.29 1126.76
  Q 513.43 1120.55 498.66 1123.03
  C 488.94 1124.66 479.98 1130.40 476.45 1139.80
  Q 474.28 1145.59 473.82 1152.16
  A 0.55 0.55 0.0 0 0 474.37 1152.75
  L 536.00 1152.75
  A 0.23 0.23 0.0 0 0 536.23 1152.52
  Z"
/>
<path class="logo-font-stroke" d="
  M 1577.77 1200.22
  A 0.66 0.65 -0.0 0 1 1578.43 1200.87
  L 1578.44 1238.61
  A 0.35 0.35 0.0 0 1 1578.23 1238.93
  C 1554.56 1249.01 1530.09 1252.52 1504.58 1251.25
  C 1482.53 1250.14 1458.67 1244.07 1442.56 1228.07
  C 1426.22 1211.86 1420.78 1190.30 1421.97 1167.48
  C 1422.81 1151.21 1426.99 1136.23 1436.22 1123.62
  Q 1447.37 1108.38 1464.44 1100.52
  C 1484.16 1091.43 1507.51 1090.11 1528.61 1093.97
  Q 1542.29 1096.46 1551.76 1102.20
  C 1570.68 1113.66 1579.72 1134.05 1580.88 1155.62
  Q 1581.47 1166.65 1581.16 1180.39
  A 0.60 0.60 0.0 0 1 1580.56 1180.98
  L 1471.31 1181.01
  A 0.52 0.52 0.0 0 0 1470.79 1181.58
  Q 1471.50 1190.92 1475.38 1197.97
  C 1484.98 1215.37 1506.64 1218.19 1524.62 1217.43
  C 1541.17 1216.73 1558.96 1209.94 1572.52 1200.68
  A 2.57 2.52 27.1 0 1 1573.97 1200.23
  L 1577.77 1200.22
  Z
  M 1533.05 1152.52
  C 1533.00 1143.14 1530.37 1133.31 1522.87 1127.25
  A 5.23 4.95 76.3 0 0 1522.11 1126.76
  Q 1510.25 1120.55 1495.48 1123.03
  C 1485.76 1124.66 1476.80 1130.40 1473.27 1139.80
  Q 1471.10 1145.59 1470.64 1152.16
  A 0.55 0.55 0.0 0 0 1471.19 1152.75
  L 1532.82 1152.75
  A 0.23 0.23 0.0 0 0 1533.05 1152.52
  Z"
/>
<path class="logo-font-stroke" d="
  M 207.42 1145.77
  L 201.63 1145.77
  A 1.25 1.24 65.2 0 1 200.82 1145.47
  Q 192.15 1138.01 184.73 1134.01
  Q 166.38 1124.09 145.84 1128.32
  C 132.45 1131.08 123.29 1142.06 119.65 1155.08
  C 115.58 1169.63 116.16 1189.99 124.86 1202.06
  Q 133.33 1213.80 149.49 1216.18
  Q 172.77 1219.59 191.50 1207.06
  Q 193.94 1205.42 200.84 1199.15
  A 1.55 1.52 23.1 0 1 201.89 1198.74
  L 207.52 1198.74
  A 0.59 0.59 0.0 0 1 208.11 1199.33
  L 208.11 1239.10
  A 0.90 0.89 -12.5 0 1 207.59 1239.91
  C 192.54 1246.77 177.38 1251.00 160.31 1251.42
  C 143.97 1251.81 127.55 1249.73 112.39 1243.83
  C 99.98 1239.00 87.69 1230.23 80.23 1219.06
  Q 73.66 1209.24 70.90 1199.35
  Q 65.52 1180.14 68.24 1158.56
  Q 70.26 1142.53 77.37 1130.51
  Q 85.20 1117.26 97.22 1108.62
  Q 111.01 1098.70 132.65 1094.56
  Q 151.01 1091.06 170.89 1093.52
  Q 187.09 1095.52 207.57 1104.33
  A 0.89 0.89 0.0 0 1 208.11 1105.15
  L 208.11 1145.07
  A 0.70 0.69 90.0 0 1 207.42 1145.77
  Z"
/>
<path class="logo-font-stroke" d="
  M 666.85 1097.43
  L 666.85 1112.64
  A 0.30 0.30 0.0 0 0 667.34 1112.88
  Q 675.46 1106.56 684.99 1101.00
  Q 703.23 1090.35 723.65 1093.13
  Q 748.38 1096.50 759.87 1118.22
  A 0.53 0.52 -33.9 0 0 760.68 1118.37
  C 771.46 1109.20 783.64 1100.74 796.51 1096.03
  Q 812.46 1090.20 829.89 1094.16
  C 856.99 1100.31 865.10 1125.50 865.01 1150.25
  Q 865.00 1150.42 865.01 1246.99
  A 0.51 0.51 0.0 0 1 864.50 1247.50
  L 816.87 1247.50
  A 0.47 0.47 0.0 0 1 816.40 1247.03
  Q 816.40 1171.32 816.38 1170.00
  C 816.27 1160.31 816.45 1153.38 814.72 1145.56
  Q 812.16 1134.02 799.30 1132.05
  Q 789.25 1130.50 780.59 1133.61
  Q 773.28 1136.24 766.33 1140.24
  A 0.81 0.80 75.4 0 0 765.93 1140.94
  L 765.92 1247.01
  A 0.49 0.48 90.0 0 1 765.44 1247.50
  L 717.75 1247.50
  A 0.42 0.42 0.0 0 1 717.33 1247.08
  Q 717.35 1191.68 717.31 1172.00
  Q 717.30 1162.18 716.79 1153.50
  C 716.56 1149.70 715.68 1144.45 713.91 1141.15
  C 709.18 1132.30 699.54 1131.11 690.26 1131.73
  C 682.40 1132.26 673.95 1136.37 667.37 1140.29
  A 1.04 1.04 0.0 0 0 666.85 1141.19
  L 666.85 1247.02
  A 0.48 0.48 0.0 0 1 666.37 1247.50
  L 618.93 1247.50
  A 0.38 0.38 0.0 0 1 618.55 1247.12
  L 618.55 1097.16
  A 0.40 0.40 0.0 0 1 618.95 1096.76
  L 666.18 1096.76
  A 0.67 0.67 0.0 0 1 666.85 1097.43
  Z"
/>
<path class="logo-font-stroke" d="
  M 1875.64 1141.52
  L 1872.34 1141.52
  A 1.14 1.13 62.9 0 1 1871.67 1141.30
  C 1853.68 1128.65 1822.13 1119.41 1799.84 1128.08
  C 1795.68 1129.70 1792.28 1132.43 1792.13 1137.27
  Q 1791.92 1144.03 1798.43 1146.79
  Q 1803.48 1148.93 1813.00 1151.04
  Q 1815.09 1151.50 1838.65 1155.90
  C 1858.02 1159.51 1878.32 1168.99 1882.09 1190.63
  Q 1886.61 1216.49 1867.39 1233.38
  C 1847.15 1251.15 1814.59 1253.27 1787.91 1250.98
  Q 1775.36 1249.91 1764.90 1247.15
  Q 1752.79 1243.94 1742.72 1239.89
  A 1.24 1.24 0.0 0 1 1741.94 1238.74
  L 1741.94 1200.23
  A 0.49 0.49 0.0 0 1 1742.43 1199.74
  L 1745.82 1199.74
  A 1.84 1.81 -27.1 0 1 1746.87 1200.07
  C 1750.97 1202.91 1753.91 1205.16 1757.99 1207.28
  Q 1779.86 1218.65 1804.28 1219.39
  Q 1816.33 1219.75 1826.51 1216.27
  Q 1832.99 1214.06 1833.50 1207.49
  C 1834.03 1200.80 1829.39 1198.28 1823.72 1196.56
  Q 1816.91 1194.50 1802.34 1192.18
  C 1782.28 1188.99 1758.19 1183.29 1747.90 1164.84
  Q 1744.56 1158.87 1743.22 1150.14
  Q 1739.62 1126.82 1758.39 1110.71
  C 1768.43 1102.09 1781.12 1097.17 1794.14 1094.78
  Q 1826.47 1088.84 1861.67 1098.36
  Q 1870.56 1100.77 1875.63 1103.01
  A 0.95 0.94 12.1 0 1 1876.19 1103.87
  L 1876.18 1140.97
  A 0.55 0.54 -90.0 0 1 1875.64 1141.52
  Z"
/>
<path class="logo-font-stroke" d="
  M 1664.31 1118.21
  Q 1670.45 1113.18 1677.06 1108.57
  Q 1698.37 1093.69 1724.24 1096.73
  A 0.42 0.42 0.0 0 1 1724.62 1097.15
  L 1724.62 1142.07
  A 0.56 0.56 0.0 0 1 1724.10 1142.63
  Q 1721.51 1142.80 1721.24 1142.76
  Q 1709.89 1140.75 1698.74 1140.55
  Q 1681.75 1140.26 1664.17 1146.38
  A 0.75 0.74 80.8 0 0 1663.67 1147.09
  L 1663.67 1247.00
  A 0.50 0.50 0.0 0 1 1663.17 1247.50
  L 1615.72 1247.50
  A 0.38 0.38 0.0 0 1 1615.34 1247.12
  L 1615.34 1097.39
  A 0.64 0.64 0.0 0 1 1615.98 1096.75
  L 1663.06 1096.75
  A 0.61 0.60 90.0 0 1 1663.66 1097.36
  L 1663.66 1117.90
  A 0.40 0.40 0.0 0 0 1664.31 1118.21
  Z"
/>
<rect class="logo-font-stroke" x="1119.54" y="1096.75" width="48.34" height="150.74" rx="0.46"/>
</svg>
